<svg xmlns="http://www.w3.org/2000/svg" xml:space="preserve" width="19px" height="22px" version="1.1" shape-rendering="geometricPrecision" text-rendering="geometricPrecision" image-rendering="optimizeQuality" fill-rule="evenodd" clip-rule="evenodd" viewBox="0 0 251 284" xmlns:xlink="http://www.w3.org/1999/xlink"> <g> <path fill="#FEFEFE" d="M38 4c-8,-5 -16,-5 -24,-2l128 128 41 -42 -145 -84zm-36 10c-1,4 -2,7 -2,11l0 234c0,4 1,8 2,11l128 -128 -128 -128zm140 140l-128 127c4,2 7,3 11,3 4,0 9,-1 13,-4l145 -85 -41 -41zm97 -33c0,0 -1,-1 -1,-1l-40 -23 -45 45 45 45c0,0 41,-24 41,-24 7,-4 12,-12 12,-21 0,-9 -5,-17 -12,-21z"/> </g></svg>
