<svg xmlns="http://www.w3.org/2000/svg" xml:space="preserve" width="24px" height="21px" version="1.1" shape-rendering="geometricPrecision" text-rendering="geometricPrecision" image-rendering="optimizeQuality" fill-rule="evenodd" clip-rule="evenodd" viewBox="0 0 398 353" xmlns:xlink="http://www.w3.org/1999/xlink"><g><path fill="#FEFEFE" d="M257 22c-2,-8 -7,-14 -14,-18 -14,-8 -31,-3 -40,11l-4 7 -4 -7c-9,-14 -26,-19 -40,-11l0 0c-14,8 -19,26 -11,40l21 37 -78 136 -58 0c-16,0 -29,13 -29,29 0,16 13,29 29,29l222 0 -34 -58 -63 0 100 -173c4,-7 5,-15 3,-22zm-218 277l-5 10c-8,14 -4,32 10,40 5,2 10,3 15,3 10,0 20,-5 25,-14l23 -39 -68 0zm330 -82l-58 0 -65 -113 -34 58 102 176c4,7 10,12 18,14 2,0 5,1 7,1 5,0 10,-2 15,-4 14,-8 18,-26 10,-40l-19 -34 24 0c16,0 29,-13 29,-29 0,-16 -13,-29 -29,-29z"/></g></svg>
